# xmcd
#
# Track frame offsets: 
#        150
#        13803
#        28325
#        44055
#        58383
#        68276
#        82207
#        96879
#        108449
#        121418
#        140715
#        150885
#        162462
#        175153
#        188259
#        198853
#        212270
#        222117
#        237375
#        250495
#        265586
#        280179
#        304206
#
# Disc length: 4261 seconds
#
# Revision: 0
# Processed by: cddbd v1.5.2PL0 Copyright (c) Steve Scherf et al.
# Submitted via: ExactAudioCopy v1.1
#
DISCID=4a10a317
DTITLE=Various Artist - All Time Country Favourites 1975 - 1980
DYEAR=2011
DGENRE=Country
TTITLE0=Glen Campbell - Southern nights
TTITLE1=Kenny Rogers - Daytime friends
TTITLE2=Don Williams - 'Till the rivers all run dry
TTITLE3=Dolly Parton - I really got the feeling
TTITLE4=Charley Pride - Someone loves you honey
TTITLE5=Tammy Wynette - 'Til I can make it on my own
TTITLE6=Willie Nelson - Sweet memories
TTITLE7=Kendalls - Sweet desire
TTITLE8=Mel Tillis - Good woman blues
TTITLE9=Marty Robins - El Paso city
TTITLE10=Statler Brothers - Do you know you are my sunshine ?
TTITLE11=Sonny James - Little band of gold
TTITLE12=Porter Wagonner and Dolly Parton - Say forever you'll be mine
TTITLE13=Charlie Rich  - All over me
TTITLE14=George Jones - Her name is
TTITLE15=Ronnie Milsap - ( I'd be ) a legend in my time
TTITLE16=Waylon Jennings - The Wurlitzer prize ( I don't wanna get ove
TTITLE16=r you )
TTITLE17=Jessi Colter - I'm not Lisa
TTITLE18=Conway Twitty - Happy birthday darlin'
TTITLE19=Billie Jo Spears - I will survive
TTITLE20=Eddy Arnold - Cowboy
TTITLE21=Bobby Bare - The winner
TTITLE22=John Denver - Thank God I'm a country boy
EXTD=
EXTT0=
EXTT1=
EXTT2=
EXTT3=
EXTT4=
EXTT5=
EXTT6=
EXTT7=
EXTT8=
EXTT9=
EXTT10=
EXTT11=
EXTT12=
EXTT13=
EXTT14=
EXTT15=
EXTT16=
EXTT17=
EXTT18=
EXTT19=
EXTT20=
EXTT21=
EXTT22=
PLAYORDER=
